<svg width="236" height="23" viewBox="0 0 236 23" fill="none" xmlns="http://www.w3.org/2000/svg">
<path d="M12.8402 0L0 4.15354V0H12.8402ZM0 4.8181C0 5.48267 1.0411 5.98109 2.25572 5.98109C2.77627 5.98109 3.1233 5.81495 3.47034 5.81495C3.99089 5.64881 15.9636 1.66141 15.9636 1.66141V18.1094C15.9636 18.1094 3.99089 22.0968 3.64385 22.263C3.29682 22.4291 2.77627 22.4291 2.42924 22.4291C1.21462 22.4291 0.173517 21.7645 0.173517 20.7677L0 4.8181Z" fill="black"/>
<path d="M31.9284 10.9652C31.9284 13.6234 30.8873 15.1187 28.111 15.1187C25.3347 15.1187 24.1201 13.6234 24.1201 10.9652V3.15651H25.8553V10.9652C25.8553 12.7927 26.3758 13.7896 28.111 13.7896C29.8462 13.7896 30.3667 12.7927 30.3667 10.9652V3.15651H32.1019V10.9652H31.9284Z" fill="black"/>
<path d="M39.0427 9.96815C39.0427 9.13744 38.5221 8.47287 37.6546 8.47287C36.6135 8.47287 36.0929 9.13744 36.0929 9.96815V15.1185H34.5312V7.14374H36.0929V7.80831C36.4399 7.47603 36.9605 6.9776 38.0016 6.9776C39.5632 6.9776 40.7779 7.97445 40.7779 9.80201V14.9524H39.2162V9.96815H39.0427Z" fill="black"/>
<path d="M43.7257 5.64859C43.0316 5.64859 42.6846 5.3163 42.6846 4.65174C42.6846 3.98717 43.0316 3.65489 43.7257 3.65489C44.4197 3.65489 44.7668 3.98717 44.7668 4.65174C44.7668 5.3163 44.4197 5.64859 43.7257 5.64859ZM44.5933 7.14386V15.1186H43.0316V7.14386H44.5933Z" fill="black"/>
<path d="M45.8096 7.14404H47.5447L49.6269 13.1251L51.7091 7.14404H53.4443L50.321 15.1188H48.7594L45.8096 7.14404Z" fill="black"/>
<path d="M55.3507 11.7957C55.5242 13.291 56.3918 13.7894 57.4329 13.7894C58.6475 13.7894 59.3416 13.4571 60.0357 13.1248L60.3827 14.6201C59.6886 14.9524 58.8211 15.1185 57.6064 15.1185C55.5242 15.1185 53.7891 13.9555 53.7891 11.1311C53.7891 8.47287 55.3507 6.9776 57.2594 6.9776C59.5151 6.9776 60.7297 8.47287 60.7297 10.7989V11.6296H55.3507V11.7957ZM58.9946 10.6327C58.9946 9.30358 58.3005 8.47287 57.0859 8.47287C56.2183 8.47287 55.3507 8.9713 55.1772 10.6327H58.9946Z" fill="black"/>
<path d="M66.2835 8.80523C66.11 8.80523 65.763 8.63909 65.2424 8.63909C64.5483 8.63909 64.2013 9.13752 64.2013 9.96822V15.1186H62.6396V7.14382H64.2013V7.97453C64.3748 7.4761 64.8954 6.97768 65.763 6.97768C66.11 6.97768 66.457 7.14382 66.457 7.14382L66.2835 8.80523Z" fill="black"/>
<path d="M73.2235 15.1188H67.1504L71.1413 8.47317H67.3239V7.14404H73.5705L69.7531 13.7897H73.397V15.1188H73.2235Z" fill="black"/>
<path d="M75.8263 5.64859C75.1322 5.64859 74.7852 5.3163 74.7852 4.65174C74.7852 3.98717 75.1322 3.65489 75.8263 3.65489C76.5203 3.65489 76.8674 3.98717 76.8674 4.65174C76.8674 5.3163 76.5203 5.64859 75.8263 5.64859ZM76.5203 7.14386V15.1186H74.9587V7.14386H76.5203Z" fill="black"/>
<path d="M82.9411 14.9524C82.5941 15.1185 82.2471 15.2847 81.553 15.2847C80.5119 15.2847 79.4708 14.9524 79.4708 13.1248V8.47289H78.4297V7.14376H79.4708V4.15321L81.0324 3.98707V7.3099H82.4206V8.63903H81.0324V13.291C81.0324 13.7894 81.3795 13.9556 81.7265 13.9556C82.0735 13.9556 82.4206 13.7894 82.7676 13.7894L82.9411 14.9524Z" fill="black"/>
<path d="M88.8419 14.4543C88.4948 14.7865 87.9743 15.285 86.7597 15.285C85.0245 15.285 83.9834 14.4543 83.9834 12.7929C83.9834 11.1314 85.198 10.1346 86.7597 10.1346C87.6272 10.1346 88.3213 10.4669 88.6683 10.7992V9.80231C88.6683 8.80546 87.9743 8.47317 87.1067 8.47317C86.0656 8.47317 85.198 8.80546 84.851 8.9716L84.6775 7.64247C85.198 7.47633 86.0656 7.14404 87.2802 7.14404C89.1889 7.14404 90.23 8.14089 90.23 9.80231V15.1188H88.6683V14.4543H88.8419ZM88.8419 12.4606C88.8419 11.796 87.9743 11.4637 87.2802 11.4637C86.4126 11.4637 85.7186 11.796 85.7186 12.7929C85.7186 13.6236 86.4126 13.9558 87.2802 13.9558C88.1478 13.9558 88.8419 13.4574 88.8419 12.7929V12.4606Z" fill="black"/>
<path d="M99.0784 15.1187V4.65178H95.9551V3.15651H103.763V4.65178H100.64V15.1187H99.0784Z" fill="black"/>
<path d="M106.887 15.2848C104.804 15.2848 103.069 14.1218 103.069 11.2974C103.069 8.473 104.978 7.31001 106.887 7.31001C108.795 7.31001 110.704 8.473 110.704 11.2974C110.704 14.1218 108.969 15.2848 106.887 15.2848ZM106.887 8.473C105.672 8.473 104.805 9.46985 104.805 11.1313C104.805 12.7927 105.672 13.7895 106.887 13.7895C108.101 13.7895 108.969 12.7927 108.969 11.1313C109.142 9.46985 108.275 8.473 106.887 8.473Z" fill="black"/>
<path d="M121.981 9.96815C121.981 9.13744 121.46 8.47287 120.593 8.47287C119.552 8.47287 119.031 9.13744 119.031 9.96815V15.1185H117.469V9.96815C117.469 9.13744 116.949 8.47287 116.081 8.47287C115.04 8.47287 114.52 9.13744 114.52 9.96815V15.1185H112.958V7.14374H114.52V7.80831C114.867 7.47603 115.387 6.9776 116.428 6.9776C117.469 6.9776 118.337 7.47603 118.684 8.14059C119.205 7.47603 119.899 6.9776 120.94 6.9776C122.501 6.9776 123.716 7.97445 123.716 9.80201V14.9524H122.154V9.96815H121.981Z" fill="black"/>
<path d="M130.138 14.4543C129.965 14.7865 129.27 15.285 128.229 15.285C126.494 15.285 125.453 14.4543 125.453 12.7928C125.453 11.1314 126.668 10.1346 128.229 10.1346C129.097 10.1346 129.791 10.4669 130.138 10.7991V9.80229C130.138 8.80544 129.444 8.47316 128.576 8.47316C127.535 8.47316 126.668 8.80544 126.321 8.97159L126.147 7.64245C126.668 7.47631 127.535 7.14403 128.75 7.14403C130.659 7.14403 131.7 8.14088 131.7 9.80229V15.1188H130.138V14.4543ZM130.138 12.4606C130.138 11.796 129.27 11.4637 128.576 11.4637C127.709 11.4637 127.015 11.796 127.015 12.7928C127.015 13.6235 127.709 13.9558 128.576 13.9558C129.444 13.7897 130.138 13.2913 130.138 12.7928V12.4606ZM129.097 3.48892H130.832L129.27 6.14718H128.056L129.097 3.48892Z" fill="black"/>
<path d="M136.385 15.285C134.997 15.285 134.129 14.9527 133.608 14.7865L133.955 13.2913C134.649 13.6235 135.517 13.7897 136.385 13.7897C137.079 13.7897 137.773 13.6235 137.773 12.7928C137.773 12.1283 136.905 11.9621 136.038 11.6298C134.997 11.4637 133.608 11.1314 133.608 9.47001C133.608 7.8086 134.823 7.14403 136.732 7.14403C137.946 7.14403 138.64 7.47631 139.334 7.64245L139.161 8.97159C138.467 8.6393 137.946 8.47316 136.905 8.47316C136.038 8.47316 135.344 8.80544 135.344 9.47001C135.344 9.96843 136.038 10.3007 136.905 10.4669C138.12 10.7991 139.681 11.1314 139.681 12.959C139.508 14.2881 138.467 15.285 136.385 15.285ZM134.129 3.48892H135.517L136.558 4.98419L137.599 3.48892H138.987L137.426 6.14718H135.691L134.129 3.48892Z" fill="black"/>
<path d="M142.456 11.7958C142.63 13.2911 143.497 13.7895 144.538 13.7895C145.753 13.7895 146.447 13.4572 147.141 13.1249L147.488 14.6202C146.794 14.9525 145.927 15.1186 144.712 15.1186C142.63 15.1186 140.895 13.9556 140.895 11.1312C140.895 8.47295 142.456 6.97768 144.365 6.97768C146.621 6.97768 147.835 8.47295 147.835 10.7989V11.6296H142.456V11.7958ZM146.274 10.6328C146.274 9.30366 145.579 8.47295 144.365 8.47295C143.497 8.47295 142.63 8.97137 142.456 10.6328H146.274Z" fill="black"/>
<path d="M157.205 15.1187H153.734V3.15651H157.552C159.807 3.15651 161.196 4.3195 161.196 6.31319C161.196 7.64233 160.502 8.47303 159.46 8.97146C160.675 9.46988 161.369 10.4667 161.369 11.7959C161.196 13.7896 159.634 15.1187 157.205 15.1187ZM157.552 4.65178H155.47V8.14075H157.378C158.593 8.14075 159.46 7.47618 159.46 6.31319C159.46 5.1502 158.593 4.65178 157.552 4.65178ZM157.205 9.63602H155.296V13.6234H157.205C158.593 13.6234 159.46 12.9589 159.46 11.6297C159.46 10.4667 158.593 9.63602 157.205 9.63602Z" fill="black"/>
<path d="M167.619 14.4543C167.445 14.7865 166.751 15.285 165.71 15.285C163.975 15.285 162.934 14.4543 162.934 12.7929C162.934 11.1314 164.148 10.1346 165.71 10.1346C166.577 10.1346 167.272 10.4669 167.619 10.7992V9.80231C167.619 8.80546 166.924 8.47317 166.057 8.47317C165.016 8.47317 164.148 8.80546 163.801 8.9716L163.628 7.64247C164.148 7.47633 165.016 7.14404 166.23 7.14404C168.139 7.14404 169.18 8.14089 169.18 9.80231V15.1188H167.619V14.4543ZM167.619 12.4606C167.619 11.796 166.751 11.4637 166.057 11.4637C165.189 11.4637 164.495 11.796 164.495 12.7929C164.495 13.6236 165.189 13.9558 166.057 13.9558C166.924 13.9558 167.619 13.4574 167.619 12.7929V12.4606Z" fill="black"/>
<path d="M175.252 14.9524C174.905 15.1185 174.558 15.2847 173.864 15.2847C172.822 15.2847 171.781 14.9524 171.781 13.1248V8.47289H170.74V7.14376H171.781V4.15321L173.343 3.98707V7.3099H174.731V8.63903H173.343V13.291C173.343 13.7894 173.69 13.9556 174.037 13.9556C174.384 13.9556 174.731 13.7894 175.078 13.7894L175.252 14.9524Z" fill="black"/>
<path d="M177.508 5.64859C176.814 5.64859 176.467 5.3163 176.467 4.65174C176.467 3.98717 176.814 3.65489 177.508 3.65489C178.202 3.65489 178.549 3.98717 178.549 4.65174C178.549 5.3163 178.202 5.64859 177.508 5.64859ZM178.375 7.14386V15.1186H176.814V7.14386H178.375Z" fill="black"/>
<path d="M183.581 7.14404H185.316L187.398 13.1251L189.481 7.14404H191.216L188.266 15.1188H186.704L183.581 7.14404Z" fill="black"/>
<path d="M193.125 11.7958C193.299 13.2911 194.166 13.7895 195.207 13.7895C196.422 13.7895 197.116 13.4572 197.81 13.1249L198.157 14.6202C197.463 14.9525 196.595 15.1186 195.381 15.1186C193.299 15.1186 191.563 13.9556 191.563 11.1312C191.563 8.47295 193.125 6.97768 195.034 6.97768C197.29 6.97768 198.504 8.47295 198.504 10.7989V11.6296H193.125V11.7958ZM196.769 10.6328C196.769 9.30366 196.075 8.47295 194.86 8.47295C193.993 8.47295 193.125 8.97137 192.952 10.6328H196.769Z" fill="black"/>
<path d="M210.65 15.1187H203.362L208.568 4.65178H203.709V3.15651H210.997L205.792 13.6234H210.65V15.1187Z" fill="black"/>
<path d="M214.292 3.15643V15.1186H212.73V3.15643H214.292Z" fill="black"/>
<path d="M217.764 3.48892H219.499L217.937 6.14718H216.723L217.764 3.48892ZM218.284 7.14403V15.1188H216.723V7.14403H218.284Z" fill="black"/>
<path d="M225.227 9.96815C225.227 9.13744 224.707 8.47287 223.839 8.47287C222.798 8.47287 222.277 9.13744 222.277 9.96815V15.1185H220.716V7.14374H222.277V7.80831C222.625 7.47603 223.145 6.9776 224.186 6.9776C225.748 6.9776 226.962 7.97445 226.962 9.80201V14.9524H225.401V9.96815H225.227Z" fill="black"/>
<path d="M230.431 11.7959C230.604 13.2912 231.472 13.7896 232.513 13.7896C233.728 13.7896 234.422 13.4573 235.116 13.125L235.463 14.6203C234.769 14.9526 233.901 15.1187 232.687 15.1187C230.604 15.1187 228.869 13.9557 228.869 11.1313C228.869 8.47308 230.431 6.97781 232.339 6.97781C234.595 6.97781 235.81 8.47308 235.81 10.7991V11.6298H230.431V11.7959ZM229.737 3.48884H231.125L232.166 4.98411L233.207 3.48884H234.595L233.034 6.1471H231.298L229.737 3.48884ZM234.075 10.6329C234.075 9.30379 233.381 8.47308 232.166 8.47308C231.298 8.47308 230.431 8.97151 230.257 10.6329H234.075Z" fill="black"/>
</svg>
