<svg width="20" height="20" viewBox="0 0 20 20" fill="none" xmlns="http://www.w3.org/2000/svg">
<path d="M14.2315 15.3581C13.3605 16.2024 12.4095 16.0691 11.4941 15.6691C10.5253 15.2603 9.63657 15.2425 8.61447 15.6691C7.33463 16.2202 6.65916 16.0602 5.89482 15.3581C1.55758 10.8875 2.1975 4.07949 7.12133 3.83063C8.32118 3.89284 9.15663 4.48832 9.85876 4.54165C10.9075 4.32834 11.9118 3.71509 13.0317 3.79508C14.3737 3.90173 15.387 4.435 16.0535 5.39487C13.2806 7.05689 13.9382 10.7098 16.4801 11.7319C15.9735 13.065 15.3158 14.3893 14.2227 15.367L14.2315 15.3581ZM9.76988 3.7773C9.63657 1.79533 11.2453 0.15998 13.0939 0C13.3517 2.29304 11.0142 3.9995 9.76988 3.7773Z" fill="black"/>
</svg>
