<svg width="20" height="20" viewBox="0 0 20 20" fill="none" xmlns="http://www.w3.org/2000/svg">
<path d="M2.57129 2.98188V17.0174C2.57138 17.0479 2.58047 17.0776 2.5974 17.1029C2.61433 17.1282 2.63836 17.148 2.66647 17.1597C2.69458 17.1714 2.72552 17.1745 2.75541 17.1687C2.7853 17.1629 2.81282 17.1484 2.8345 17.127L10.1426 10L2.8345 2.87224C2.81282 2.85086 2.7853 2.83636 2.75541 2.83055C2.72552 2.82475 2.69458 2.8279 2.66647 2.83961C2.63836 2.85131 2.61433 2.87106 2.5974 2.89637C2.58047 2.92168 2.57138 2.95143 2.57129 2.98188ZM13.2069 7.07147L4.04341 2.02296L4.0377 2.01975C3.87984 1.93404 3.72984 2.1476 3.85913 2.27189L11.0422 9.14037L13.2069 7.07147ZM3.85984 17.7281C3.72985 17.8524 3.87984 18.066 4.03841 17.9803L4.04413 17.977L13.2069 12.9285L11.0422 10.8589L3.85984 17.7281ZM16.9061 9.10715L14.3472 7.69789L11.9412 10L14.3472 12.301L16.9061 10.8928C17.6022 10.5082 17.6022 9.49179 16.9061 9.10715Z" fill="black"/>
</svg>
