<svg width="21" height="21" viewBox="0 0 21 21" fill="none" xmlns="http://www.w3.org/2000/svg">
    <path d="M5.68839 0C2.5379 0 0 2.5379 0 5.68839V14.7898C0 17.9403 2.5379 20.4782 5.68839 20.4782H14.7898C17.9403 20.4782 20.4782 17.9403 20.4782 14.7898V5.68839C20.4782 2.5379 17.9403 0 14.7898 0H5.68839ZM5.68839 2.27536H14.7898C16.6714 2.27536 18.2029 3.80685 18.2029 5.68839V14.7898C18.2029 16.6714 16.6714 18.2029 14.7898 18.2029H5.68839C3.80685 18.2029 2.27536 16.6714 2.27536 14.7898V5.68839C2.27536 3.80685 3.80685 2.27536 5.68839 2.27536ZM15.9275 3.41304C15.3149 3.41304 14.7898 3.93812 14.7898 4.55071C14.7898 5.16331 15.3149 5.68839 15.9275 5.68839C16.5401 5.68839 17.0652 5.16331 17.0652 4.55071C17.0652 3.93812 16.5401 3.41304 15.9275 3.41304ZM10.2391 4.55071C7.08861 4.55071 4.55071 7.08861 4.55071 10.2391C4.55071 13.3896 7.08861 15.9275 10.2391 15.9275C13.3896 15.9275 15.9275 13.3896 15.9275 10.2391C15.9275 7.08861 13.3896 4.55071 10.2391 4.55071ZM10.2391 6.82607C12.1207 6.82607 13.6521 8.35756 13.6521 10.2391C13.6521 12.1207 12.1207 13.6521 10.2391 13.6521C8.35756 13.6521 6.82607 12.1207 6.82607 10.2391C6.82607 8.35756 8.35756 6.82607 10.2391 6.82607Z"
          fill="black"/>
</svg>
