<svg width="51" height="18" viewBox="0 0 51 18" fill="none" xmlns="http://www.w3.org/2000/svg">
<path d="M0.0399617 3.86688C0.0399617 4.34642 0.827207 4.78733 1.76098 4.78733C2.10731 4.78733 2.44033 4.72073 2.72006 4.62749C3.01311 4.53291 12.2003 1.31999 12.2003 1.31999V14.5207C12.2003 14.5207 2.95983 17.7469 2.70674 17.8402C2.44033 17.9334 2.05403 18 1.74633 18C0.800566 18 0 17.5205 0 16.6666V3.86688H0.0399617ZM9.86654 0.0398838L0 3.3607V-7.7556e-05H9.86654V0.0398838Z" fill="black"/>
<path d="M21.109 13.1624H19.7346V12.297H19.8873C19.7176 12.5685 19.4419 12.8146 19.0601 13.0352C18.6783 13.2557 18.271 13.366 17.8383 13.366C17.0154 13.366 16.3918 13.1158 15.9675 12.6152C15.5433 12.1146 15.3312 11.4486 15.3312 10.6171V6.6719H16.7566V10.4262C16.7566 11.5037 17.2275 12.0425 18.1692 12.0425C18.6104 12.0425 18.971 11.8643 19.251 11.508C19.5394 11.1431 19.6837 10.7189 19.6837 10.2353V6.6719H21.109V13.1624ZM25.3723 13.2642C24.6851 13.2642 24.1548 13.0776 23.7815 12.7043C23.4167 12.331 23.2343 11.8092 23.2343 11.1389V7.99546H22.1398V6.6719H23.2343V4.76292H24.6596V6.6719H26.1868V7.99546H24.6596V11.0498C24.6596 11.6437 24.8972 11.9407 25.3723 11.9407C25.5675 11.9407 25.7669 11.8898 25.9705 11.788L26.4795 13.0352C26.1317 13.1879 25.7626 13.2642 25.3723 13.2642ZM30.7368 13.366C30.2362 13.366 29.7865 13.26 29.3877 13.0479C28.9975 12.8358 28.7132 12.5855 28.5351 12.297H28.6878V13.1624H27.3133V3.79571H28.7387V6.79917L28.7005 7.5373H28.5351C28.7132 7.24884 28.9975 6.99855 29.3877 6.78644C29.7865 6.57433 30.2362 6.46828 30.7368 6.46828C31.5767 6.46828 32.3021 6.79917 32.913 7.46094C33.5239 8.12272 33.8293 8.94146 33.8293 9.91716C33.8293 10.8929 33.5239 11.7116 32.913 12.3734C32.3021 13.0352 31.5767 13.366 30.7368 13.366ZM30.5459 12.0425C31.0549 12.0425 31.4919 11.8516 31.8567 11.4698C32.2215 11.0795 32.4039 10.562 32.4039 9.91716C32.4039 9.27235 32.2215 8.75905 31.8567 8.37725C31.4919 7.98697 31.0549 7.79183 30.5459 7.79183C30.0283 7.79183 29.5871 7.98273 29.2223 8.36453C28.866 8.74632 28.6878 9.26387 28.6878 9.91716C28.6878 10.5705 28.866 11.088 29.2223 11.4698C29.5871 11.8516 30.0283 12.0425 30.5459 12.0425ZM36.504 12.9461C36.3089 13.1412 36.0756 13.2388 35.8041 13.2388C35.5326 13.2388 35.2993 13.1412 35.1041 12.9461C34.909 12.7509 34.8114 12.5176 34.8114 12.2461C34.8114 11.9746 34.909 11.7413 35.1041 11.5462C35.2993 11.351 35.5326 11.2534 35.8041 11.2534C36.0756 11.2534 36.3089 11.351 36.504 11.5462C36.6992 11.7413 36.7968 11.9746 36.7968 12.2461C36.7968 12.5176 36.6992 12.7509 36.504 12.9461ZM41.1164 13.366C40.1492 13.366 39.3517 13.0394 38.7238 12.3861C38.096 11.7243 37.7821 10.9013 37.7821 9.91716C37.7821 8.93298 38.096 8.11424 38.7238 7.46094C39.3517 6.79917 40.1492 6.46828 41.1164 6.46828C41.8376 6.46828 42.4357 6.64645 42.9108 7.00279C43.3945 7.35913 43.7635 7.84274 44.0181 8.45361L42.72 9.00085C42.3806 8.19484 41.8206 7.79183 41.0401 7.79183C40.5564 7.79183 40.128 7.99122 39.7547 8.38998C39.3898 8.78874 39.2074 9.2978 39.2074 9.91716C39.2074 10.5365 39.3898 11.0456 39.7547 11.4443C40.128 11.8431 40.5564 12.0425 41.0401 12.0425C41.8545 12.0425 42.4357 11.6395 42.7836 10.8335L44.0562 11.3807C43.8017 11.9831 43.4284 12.4667 42.9363 12.8315C42.4442 13.1879 41.8376 13.366 41.1164 13.366ZM44.7493 13.1624V11.9661L48.1473 7.99546H44.8511V6.6719H49.9927V7.86819L46.5947 11.8389H50.0436V13.1624H44.7493Z" fill="black"/>
</svg>
