<svg width="25" height="17" viewBox="0 0 25 17" fill="none" xmlns="http://www.w3.org/2000/svg">
    <path d="M24.4873 2.66917C24.2247 1.619 23.3934 0.787623 22.3432 0.525082C20.4617 -1.04324e-07 12.9355 0 12.9355 0C12.9355 0 5.4093 -1.04324e-07 3.52776 0.525082C2.47759 0.787623 1.68996 1.619 1.38366 2.66917C0.902333 4.55071 0.902344 8.48883 0.902344 8.48883C0.902344 8.48883 0.902333 12.4269 1.38366 14.3085C1.6462 15.3587 2.47759 16.19 3.52776 16.4526C5.4093 16.9777 12.9355 16.9777 12.9355 16.9777C12.9355 16.9777 20.4617 16.9777 22.3432 16.4526C23.3934 16.19 24.181 15.3587 24.4873 14.3085C24.9686 12.4269 24.9686 8.48883 24.9686 8.48883C24.9686 8.48883 24.9686 4.55071 24.4873 2.66917Z"
          fill="black"/>
    <path d="M10.4854 12.0769L16.7864 8.48882L10.4854 4.90076V12.0769Z" fill="white"/>
</svg>
